Coordinates
version=1
nRows=5
nColumns=63
inDegrees=yes

Units are S.I. units (second, meters, Newtons, ...)
If the header above contains a line with 'inDegrees', this indicates whether rotational values are in degrees (yes) or radians (no).

endheader
time	pelvis_tilt	pelvis_list	pelvis_rotation	pelvis_tx	pelvis_ty	pelvis_tz	hip_flexion_r	hip_adduction_r	hip_rotation_r	knee_angle_r	knee_angle_r_beta	ankle_angle_r	subtalar_angle_r	mtp_angle_r	hip_flexion_l	hip_adduction_l	hip_rotation_l	knee_angle_l	knee_angle_l_beta	ankle_angle_l	subtalar_angle_l	mtp_angle_l	L5_S1_Flex_Ext	L5_S1_Lat_Bending	L5_S1_axial_rotation	L4_L5_Flex_Ext	L4_L5_Lat_Bending	L4_L5_axial_rotation	L3_L4_Flex_Ext	L3_L4_Lat_Bending	L3_L4_axial_rotation	L2_L3_Flex_Ext	L2_L3_Lat_Bending	L2_L3_axial_rotation	L1_L2_Flex_Ext	L1_L2_Lat_Bending	L1_L2_axial_rotation	L1_T12_Flex_Ext	L1_T12_Lat_Bending	L1_T12_axial_rotation	Abs_r3	Abs_r2	Abs_r1	Abs_t1	Abs_t2	neck_flexion	neck_bending	neck_rotation	arm_flex_r	arm_add_r	arm_rot_r	elbow_flex_r	pro_sup_r	wrist_flex_r	wrist_dev_r	arm_flex_l	arm_add_l	arm_rot_l	elbow_flex_l	pro_sup_l	wrist_flex_l	wrist_dev_l
      4.92452830	     -3.77354988	      4.43525822	     93.09544166	     -0.01799469	      0.94864847	      0.55158446	     -7.17109824	     -3.13336184	     -6.72925881	      7.11370260	      0.12415753	     29.26217782	      4.83782608	      0.00000000	     -8.49410362	      2.72746099	      6.15509543	      1.27106116	      0.02218420	     26.41239630	     -3.11260678	      0.00000000	      0.02290294	     -0.30721330	      1.03343231	      0.04253306	     -0.40859369	      1.09802182	      0.03762725	     -0.74695842	      1.09802182	      0.02617578	     -0.74695842	      0.90425327	      0.02126767	     -0.62646936	      0.83966375	      0.01308674	     -0.47587340	      0.77507423	      0.16359345	     -3.47525830	      5.74764045	      0.00000000	      0.00000000	     17.11012741	     -7.70555044	    -31.15383996	      7.73455668	    -43.34297111	    -15.04351771	    137.18502849	     81.79259012	     11.16143781	     18.98161387	     84.60245902	    -47.34533694	      5.35478678	    128.11698314	     80.63122875	    -23.05296480	      2.32317241
      4.94339623	     -3.87121215	      4.32946248	     92.13883942	     -0.01515450	      0.94821998	      0.55293247	     -6.98199337	     -3.22948259	     -5.62034597	      6.88474326	      0.12016144	     29.25452587	      4.63555239	      0.00000000	     -8.34988785	      2.85248814	      5.11152349	      1.31766785	      0.02299764	     26.43447323	     -3.01406424	      0.00000000	      0.01947629	     -0.34210849	      1.29906849	      0.03616942	     -0.45500429	      1.38026027	      0.03199760	     -0.83180258	      1.38026027	      0.02225945	     -0.83180258	      1.13668492	      0.01808569	     -0.69762763	      1.05549314	      0.01112875	     -0.52992605	      0.97430136	      0.13911721	     -3.86999964	      7.22502919	      0.00000000	      0.00000000	     17.80018560	     -7.39144020	    -31.88832420	      1.84774227	    -40.75108255	    -12.95469114	    136.05392403	     80.09624718	      5.57836661	     25.24215158	     89.27603206	    -43.34921457	      6.18675250	    124.60772377	     81.49737349	    -24.99853340	      3.46204654
      4.96226415	     -3.95033054	      4.04374520	     91.11123351	     -0.01218309	      0.94769173	      0.55437310	     -6.59290320	     -3.28398182	     -4.08778018	      6.60024946	      0.11519608	     29.25118975	      4.06927671	      0.00000000	     -8.00637111	      2.96808000	      3.64146290	      1.39439662	      0.02433681	     26.47871127	     -2.50197864	      0.00000000	      0.02415982	     -0.38296055	      1.53764872	      0.04486720	     -0.50933754	      1.63375177	      0.03969217	     -0.93113029	      1.63375177	      0.02761226	     -0.93113029	      1.34544263	      0.02243481	     -0.78093316	      1.24933959	      0.01380492	     -0.59320590	      1.15323654	      0.17257119	     -4.33212639	      8.55194089	      0.00000000	      0.00000000	     18.68182984	     -7.20991218	    -33.01616814	     -2.44955167	    -37.59680407	    -10.07246139	    133.83110320	     75.40810200	     -1.64511323	     29.39584575	     93.07136305	    -39.44155238	      6.01752931	    121.35776699	     83.20170940	    -27.86076664	      4.04445524
      4.98113208	     -4.03971602	      3.65015919	     89.92894447	     -0.00905196	      0.94699691	      0.55576381	     -6.03026661	     -3.39059497	     -2.98671416	      6.40447339	      0.11177915	     29.48216080	      4.32682573	      0.00000000	     -7.57264584	      3.10765411	      2.48975559	      1.44829050	      0.02527744	     26.33337842	     -2.59447973	      0.00000000	      0.03260462	     -0.41948070	      1.80835182	      0.06055003	     -0.55790933	      1.92137381	      0.05356613	     -1.01992538	      1.92137381	      0.03726382	     -1.01992538	      1.58230784	      0.03027665	     -0.85540505	      1.46928585	      0.01863028	     -0.64977561	      1.35626387	      0.23289152	     -4.74524960	     10.05751033	      0.00000000	      0.00000000	     19.74399748	     -7.19868102	    -33.93387222	     -5.54258661	    -33.81968416	     -7.84271611	    130.94570833	     72.40133723	     -7.15797075	     31.65933068	     96.05693526	    -35.55827751	      4.44474464	    118.45131684	     84.00875835	    -30.74407665	      3.01467581
      5.00000000	     -3.96954728	      3.30020016	     88.50977526	     -0.00621698	      0.94615771	      0.55711197	     -5.54406053	     -3.34548255	     -1.32068353	      6.12275694	      0.10686227	     29.43789200	      4.04990000	      0.00000000	     -7.22046971	      3.12186058	      0.78841497	      1.46196122	      0.02551604	     26.24290272	     -2.20351032	      0.00000000	      0.03646926	     -0.40434516	      2.08600867	      0.06772706	     -0.53777906	      2.21638421	      0.05991534	     -0.98312482	      2.21638421	      0.04168072	     -0.98312482	      1.82525758	      0.03386535	     -0.82454065	      1.69488204	      0.02083853	     -0.62633065	      1.56450650	      0.26049627	     -4.57403330	     11.60175440	      0.00000000	      0.00000000	     20.46262431	     -8.38012772	    -34.06127605	     -7.53108866	    -30.64558563	     -5.92263607	    127.63819399	     65.46756202	    -11.24681974	     32.17135826	     98.54678303	    -32.69348287	      2.63651917	    116.34138297	     84.34316675	    -37.77063030	      0.90394208
